<?xml version="1.0" encoding="UTF-8" standalone="no"?>
<!DOCTYPE svg PUBLIC "-//W3C//DTD SVG 1.1//EN" "http://www.w3.org/Graphics/SVG/1.1/DTD/svg11.dtd">
<svg width="100%" height="100%" viewBox="0 0 2000 2000" version="1.1" xmlns="http://www.w3.org/2000/svg" xmlns:xlink="http://www.w3.org/1999/xlink" xml:space="preserve" xmlns:serif="http://www.serif.com/" style="fill-rule:evenodd;clip-rule:evenodd;stroke-linecap:round;stroke-linejoin:round;stroke-miterlimit:1.5;">
    <g id="Outlines-right" serif:id="Outlines right">
        <g id="Cube" transform="matrix(-1,0,0,1,2002.781825,-0.921417)">
            <path d="M1002.204,755.303L780.482,890.873L779.318,1145.799L1000,1282.29L1002.204,755.303Z" style="fill:none;stroke:black;stroke-width:4.17px;"/>
            <path d="M779.318,1145.799L1002.204,1025.453L1002.204,755.303L1002.204,1025.453L780.482,890.873L1002.204,1025.453L1000,1282.29L779.318,1145.799Z" style="fill:none;stroke:black;stroke-width:4.17px;"/>
            <path d="M780.482,1145.987L876.601,949.215L1000.944,1172.262L780.482,1145.987Z" style="fill:none;stroke:black;stroke-width:4.17px;"/>
            <path d="M1002.782,755.303L876.601,949.215L1002.204,917.958L1002.782,755.303Z" style="fill:none;stroke:black;stroke-width:4.17px;"/>
        </g>
        <g transform="matrix(-1,0,0,1,1994.573356,-3.49868)">
            <path d="M703.366,891.901L703.366,1188.778L951.45,1348.551L756.817,1457.778L507.572,1306.72L507.572,1011.12L703.366,891.901ZM756.817,1457.778L748.196,1217.102M507.572,1306.72L703.366,1188.778M507.572,1011.12L703.366,1136.489" style="fill:none;stroke:black;stroke-width:4.17px;"/>
        </g>
        <g transform="matrix(0.5,0.866025,0.866025,-0.5,-378.542171,651.380727)">
            <path d="M504.124,1300.748L703.366,1188.778L951.45,1348.551L756.817,1457.778L504.124,1300.748ZM756.817,1457.778L748.196,1217.102" style="fill:none;stroke:black;stroke-width:4.17px;"/>
        </g>
    </g>
</svg>
