<?xml version="1.0" encoding="UTF-8" standalone="no"?>
<!DOCTYPE svg PUBLIC "-//W3C//DTD SVG 1.1//EN" "http://www.w3.org/Graphics/SVG/1.1/DTD/svg11.dtd">
<svg width="100%" height="100%" viewBox="0 0 2000 2000" version="1.1" xmlns="http://www.w3.org/2000/svg" xmlns:xlink="http://www.w3.org/1999/xlink" xml:space="preserve" xmlns:serif="http://www.serif.com/" style="fill-rule:evenodd;clip-rule:evenodd;stroke-linecap:round;stroke-linejoin:round;stroke-miterlimit:1.5;">
    <g id="Logo-3" serif:id="Logo 3" transform="matrix(1,0,0,1,0,-72.197989)">
        <g transform="matrix(1.554533,0,0,1.554533,-1262.818335,196.730452)">
            <circle cx="1455.626" cy="563.171" r="455.626"/>
        </g>
        <g transform="matrix(1,0,0,1,-0.783468,53.40148)">
            <path d="M975.44,1359.381L764.325,1477.719C760.092,1480.891 755.246,1480.537 749.971,1477.719L493.777,1323.461C487.242,1319.889 483.7,1315.29 483.622,1310.259L484.115,1002.855C484.178,999.735 485.186,997.492 487.115,996.105L692.126,872.388C704.719,865.76 717.775,871.878 720.71,884.93L721.404,1178.689L973.615,1334.51C982.914,1343.119 984.307,1351.438 975.44,1359.381ZM767.336,1250.062L774.041,1432.585L923.039,1346.945L767.336,1250.062ZM540.487,1308.916L737.909,1425.88L728.969,1227.713L705.875,1212.068L540.487,1308.916ZM519.475,1044.122L519.475,1277.453L688.355,1181.264L688.355,1152.485L519.475,1044.122ZM534.546,1008.607L688.164,1107.428L688.355,915.948L534.546,1008.607Z" style="fill:white;"/>
        </g>
        <g transform="matrix(-1,0,0,1,2000.783468,53.40148)">
            <path d="M975.44,1359.381L764.325,1477.719C760.092,1480.891 755.246,1480.537 749.971,1477.719L493.777,1323.461C487.242,1319.889 483.7,1315.29 483.622,1310.259L484.115,1002.855C484.178,999.735 485.186,997.492 487.115,996.105L692.126,872.388C704.719,865.76 717.775,871.878 720.71,884.93L721.404,1178.689L973.615,1334.51C982.914,1343.119 984.307,1351.438 975.44,1359.381ZM767.336,1250.062L774.041,1432.585L923.039,1346.945L767.336,1250.062ZM540.487,1308.916L737.909,1425.88L728.969,1227.713L705.875,1212.068L540.487,1308.916ZM519.475,1044.122L519.475,1277.453L688.355,1181.264L688.355,1152.485L519.475,1044.122ZM534.546,1008.607L688.164,1107.428L688.355,915.948L534.546,1008.607Z" style="fill:white;"/>
        </g>
        <g transform="matrix(0.5,0.866025,0.866025,-0.5,-378.654068,704.335666)">
            <path d="M975.44,1359.381L764.325,1477.719C760.092,1480.891 755.246,1480.537 749.971,1477.719L493.777,1323.461C487.242,1319.889 483.7,1315.29 483.622,1310.259L484.115,1002.855C484.178,999.735 485.186,997.492 487.115,996.105L692.126,872.388C704.719,865.76 717.775,871.878 720.71,884.93L721.404,1178.689L973.615,1334.51C982.914,1343.119 984.307,1351.438 975.44,1359.381ZM767.336,1250.062L774.041,1432.585L923.039,1346.945L767.336,1250.062ZM540.487,1308.916L737.909,1425.88L728.969,1227.713L705.875,1212.068L540.487,1308.916ZM519.475,1044.122L519.475,1277.453L688.355,1181.264L688.355,1152.485L519.475,1044.122ZM534.546,1008.607L688.164,1107.428L688.355,915.948L534.546,1008.607Z" style="fill:white;"/>
        </g>
        <g id="Base-2" serif:id="Base 2" transform="matrix(1,0,0,1,-0.783468,53.40148)">
            <g id="Cube">
                <path d="M1002.204,755.303L780.482,890.873L779.318,1145.799L1000,1282.29L1225.082,1149.086L1225.082,892.316L1002.204,755.303Z" style="fill:none;stroke:rgb(29,175,161);stroke-width:37.08px;"/>
                <path d="M779.318,1145.799L1002.204,1025.453L1002.204,755.303L1002.204,1025.453L1225.091,1149.086L1225.082,892.316L1002.204,1025.453L780.482,890.873L1002.204,1025.453L1000,1282.29L779.318,1145.799Z" style="fill:none;stroke:rgb(29,175,161);stroke-width:37.08px;"/>
                <path d="M780.482,1145.987L876.601,949.215L1000.944,1172.262L780.482,1145.987Z" style="fill:none;stroke:rgb(29,175,161);stroke-width:37.08px;"/>
                <path d="M1000.944,1172.262L1124.842,952.195L1225.091,1149.086L1000.944,1172.262Z" style="fill:none;stroke:rgb(29,175,161);stroke-width:37.08px;"/>
                <path d="M1002.782,755.303L876.601,949.215L1126.673,949.215C1126.673,949.215 1099.457,911.246 1086.764,890.772C1077.775,876.272 1002.782,755.303 1002.782,755.303Z" style="fill:none;stroke:rgb(29,175,161);stroke-width:37.08px;"/>
            </g>
        </g>
    </g>
</svg>
